<mxfile host="Electron" agent="Mozilla/5.0 (Windows NT 10.0; Win64; x64) AppleWebKit/537.36 (KHTML, like Gecko) draw.io/24.7.5 Chrome/126.0.6478.183 Electron/31.3.0 Safari/537.36" version="24.7.5">
  <diagram id="C5RBs43oDa-KdzZeNtuy" name="Page-1">
    <mxGraphModel dx="1877" dy="1790" grid="1" gridSize="10" guides="1" tooltips="1" connect="1" arrows="1" fold="1" page="1" pageScale="1" pageWidth="827" pageHeight="1169" math="0" shadow="0">
      <root>
        <mxCell id="WIyWlLk6GJQsqaUBKTNV-0" />
        <mxCell id="WIyWlLk6GJQsqaUBKTNV-1" parent="WIyWlLk6GJQsqaUBKTNV-0" />
        <mxCell id="dnalP0NCD64JK1VwUCnu-0" value="Cricbuzz LLD" style="text;html=1;align=center;verticalAlign=middle;whiteSpace=wrap;rounded=0;" vertex="1" parent="WIyWlLk6GJQsqaUBKTNV-1">
          <mxGeometry x="260" y="-50" width="210" height="30" as="geometry" />
        </mxCell>
        <mxCell id="dnalP0NCD64JK1VwUCnu-10" style="edgeStyle=orthogonalEdgeStyle;rounded=0;orthogonalLoop=1;jettySize=auto;html=1;exitX=1;exitY=0.25;exitDx=0;exitDy=0;entryX=0;entryY=0.25;entryDx=0;entryDy=0;" edge="1" parent="WIyWlLk6GJQsqaUBKTNV-1" source="dnalP0NCD64JK1VwUCnu-1" target="dnalP0NCD64JK1VwUCnu-9">
          <mxGeometry relative="1" as="geometry" />
        </mxCell>
        <mxCell id="dnalP0NCD64JK1VwUCnu-28" style="edgeStyle=orthogonalEdgeStyle;rounded=0;orthogonalLoop=1;jettySize=auto;html=1;exitX=0.25;exitY=1;exitDx=0;exitDy=0;entryX=0.75;entryY=0;entryDx=0;entryDy=0;" edge="1" parent="WIyWlLk6GJQsqaUBKTNV-1" source="dnalP0NCD64JK1VwUCnu-1" target="dnalP0NCD64JK1VwUCnu-27">
          <mxGeometry relative="1" as="geometry" />
        </mxCell>
        <mxCell id="dnalP0NCD64JK1VwUCnu-1" value="Match&lt;hr&gt;Team A;&lt;div&gt;Team B;&lt;/div&gt;&lt;div&gt;Date date;&lt;/div&gt;&lt;div&gt;String venue;&lt;/div&gt;&lt;div&gt;Innings[] innings;&lt;/div&gt;&lt;div&gt;MatchType matchtype;&lt;/div&gt;&lt;div&gt;Team TossWinner;&lt;/div&gt;&lt;div&gt;&lt;hr&gt;startMatch()&lt;/div&gt;" style="whiteSpace=wrap;html=1;aspect=fixed;" vertex="1" parent="WIyWlLk6GJQsqaUBKTNV-1">
          <mxGeometry x="140" width="170" height="170" as="geometry" />
        </mxCell>
        <mxCell id="dnalP0NCD64JK1VwUCnu-2" value="«interface»&lt;br&gt;&lt;b&gt;MatchType&lt;/b&gt;&lt;hr&gt;numberofOvers();&lt;div&gt;&lt;code&gt;maxOverCountBowlers()&lt;/code&gt;&lt;br&gt;&lt;/div&gt;" style="html=1;whiteSpace=wrap;" vertex="1" parent="WIyWlLk6GJQsqaUBKTNV-1">
          <mxGeometry x="-90" width="160" height="100" as="geometry" />
        </mxCell>
        <mxCell id="dnalP0NCD64JK1VwUCnu-3" value="OneDayMatchType" style="rounded=0;whiteSpace=wrap;html=1;" vertex="1" parent="WIyWlLk6GJQsqaUBKTNV-1">
          <mxGeometry x="10" y="140" width="110" height="40" as="geometry" />
        </mxCell>
        <mxCell id="dnalP0NCD64JK1VwUCnu-5" value="T20MatchType" style="rounded=0;whiteSpace=wrap;html=1;" vertex="1" parent="WIyWlLk6GJQsqaUBKTNV-1">
          <mxGeometry x="-90" y="140" width="90" height="40" as="geometry" />
        </mxCell>
        <mxCell id="dnalP0NCD64JK1VwUCnu-6" value="" style="endArrow=block;dashed=1;endFill=0;endSize=12;html=1;rounded=0;exitX=0.25;exitY=1;exitDx=0;exitDy=0;entryX=0.25;entryY=0;entryDx=0;entryDy=0;" edge="1" parent="WIyWlLk6GJQsqaUBKTNV-1" source="dnalP0NCD64JK1VwUCnu-2" target="dnalP0NCD64JK1VwUCnu-5">
          <mxGeometry width="160" relative="1" as="geometry">
            <mxPoint x="360" y="260" as="sourcePoint" />
            <mxPoint x="520" y="260" as="targetPoint" />
          </mxGeometry>
        </mxCell>
        <mxCell id="dnalP0NCD64JK1VwUCnu-7" value="" style="endArrow=block;dashed=1;endFill=0;endSize=12;html=1;rounded=0;exitX=0.75;exitY=1;exitDx=0;exitDy=0;entryX=0.5;entryY=0;entryDx=0;entryDy=0;" edge="1" parent="WIyWlLk6GJQsqaUBKTNV-1" source="dnalP0NCD64JK1VwUCnu-2" target="dnalP0NCD64JK1VwUCnu-3">
          <mxGeometry width="160" relative="1" as="geometry">
            <mxPoint x="-40" y="110" as="sourcePoint" />
            <mxPoint x="-57" y="150" as="targetPoint" />
          </mxGeometry>
        </mxCell>
        <mxCell id="dnalP0NCD64JK1VwUCnu-8" style="edgeStyle=orthogonalEdgeStyle;rounded=0;orthogonalLoop=1;jettySize=auto;html=1;exitX=0;exitY=0.25;exitDx=0;exitDy=0;entryX=0.996;entryY=0.374;entryDx=0;entryDy=0;entryPerimeter=0;" edge="1" parent="WIyWlLk6GJQsqaUBKTNV-1" source="dnalP0NCD64JK1VwUCnu-1" target="dnalP0NCD64JK1VwUCnu-2">
          <mxGeometry relative="1" as="geometry" />
        </mxCell>
        <mxCell id="dnalP0NCD64JK1VwUCnu-12" style="edgeStyle=orthogonalEdgeStyle;rounded=0;orthogonalLoop=1;jettySize=auto;html=1;exitX=1;exitY=0.25;exitDx=0;exitDy=0;entryX=0;entryY=0.25;entryDx=0;entryDy=0;" edge="1" parent="WIyWlLk6GJQsqaUBKTNV-1" source="dnalP0NCD64JK1VwUCnu-9" target="dnalP0NCD64JK1VwUCnu-11">
          <mxGeometry relative="1" as="geometry" />
        </mxCell>
        <mxCell id="dnalP0NCD64JK1VwUCnu-23" style="edgeStyle=orthogonalEdgeStyle;rounded=0;orthogonalLoop=1;jettySize=auto;html=1;exitX=0;exitY=1;exitDx=0;exitDy=0;entryX=0.5;entryY=0;entryDx=0;entryDy=0;" edge="1" parent="WIyWlLk6GJQsqaUBKTNV-1" source="dnalP0NCD64JK1VwUCnu-9" target="dnalP0NCD64JK1VwUCnu-21">
          <mxGeometry relative="1" as="geometry" />
        </mxCell>
        <mxCell id="dnalP0NCD64JK1VwUCnu-24" style="edgeStyle=orthogonalEdgeStyle;rounded=0;orthogonalLoop=1;jettySize=auto;html=1;exitX=0.75;exitY=1;exitDx=0;exitDy=0;entryX=0.25;entryY=0;entryDx=0;entryDy=0;" edge="1" parent="WIyWlLk6GJQsqaUBKTNV-1" source="dnalP0NCD64JK1VwUCnu-9" target="dnalP0NCD64JK1VwUCnu-22">
          <mxGeometry relative="1" as="geometry" />
        </mxCell>
        <mxCell id="dnalP0NCD64JK1VwUCnu-9" value="Team&lt;hr&gt;String teamName;&lt;div&gt;Queue&amp;lt;Player&amp;gt; players;&lt;/div&gt;&lt;div&gt;List&amp;lt;Player&amp;gt; bench;&lt;/div&gt;&lt;div&gt;PlayerBattingController Onj;&lt;/div&gt;&lt;div&gt;PlayerBowlingController Obj;&lt;/div&gt;" style="whiteSpace=wrap;html=1;aspect=fixed;" vertex="1" parent="WIyWlLk6GJQsqaUBKTNV-1">
          <mxGeometry x="380" width="160" height="160" as="geometry" />
        </mxCell>
        <mxCell id="dnalP0NCD64JK1VwUCnu-14" style="edgeStyle=orthogonalEdgeStyle;rounded=0;orthogonalLoop=1;jettySize=auto;html=1;exitX=1;exitY=0.25;exitDx=0;exitDy=0;entryX=0;entryY=0.5;entryDx=0;entryDy=0;" edge="1" parent="WIyWlLk6GJQsqaUBKTNV-1" source="dnalP0NCD64JK1VwUCnu-11" target="dnalP0NCD64JK1VwUCnu-13">
          <mxGeometry relative="1" as="geometry" />
        </mxCell>
        <mxCell id="dnalP0NCD64JK1VwUCnu-19" style="edgeStyle=orthogonalEdgeStyle;rounded=0;orthogonalLoop=1;jettySize=auto;html=1;exitX=0.75;exitY=1;exitDx=0;exitDy=0;entryX=0.75;entryY=0;entryDx=0;entryDy=0;" edge="1" parent="WIyWlLk6GJQsqaUBKTNV-1" source="dnalP0NCD64JK1VwUCnu-11" target="dnalP0NCD64JK1VwUCnu-18">
          <mxGeometry relative="1" as="geometry" />
        </mxCell>
        <mxCell id="dnalP0NCD64JK1VwUCnu-20" style="edgeStyle=orthogonalEdgeStyle;rounded=0;orthogonalLoop=1;jettySize=auto;html=1;exitX=1;exitY=1;exitDx=0;exitDy=0;entryX=0;entryY=0.25;entryDx=0;entryDy=0;" edge="1" parent="WIyWlLk6GJQsqaUBKTNV-1" source="dnalP0NCD64JK1VwUCnu-11" target="dnalP0NCD64JK1VwUCnu-17">
          <mxGeometry relative="1" as="geometry" />
        </mxCell>
        <mxCell id="dnalP0NCD64JK1VwUCnu-11" value="Player&lt;hr&gt;Person person;&lt;div&gt;PlayerType type;&lt;/div&gt;&lt;div&gt;BattingScoreCard obj;&lt;/div&gt;&lt;div&gt;BowlingScoreCard obj;&lt;/div&gt;" style="whiteSpace=wrap;html=1;aspect=fixed;" vertex="1" parent="WIyWlLk6GJQsqaUBKTNV-1">
          <mxGeometry x="590" width="140" height="140" as="geometry" />
        </mxCell>
        <mxCell id="dnalP0NCD64JK1VwUCnu-13" value="enum PlayerType&lt;hr&gt;Batsman,&lt;div&gt;Bowler;&lt;/div&gt;" style="whiteSpace=wrap;html=1;aspect=fixed;" vertex="1" parent="WIyWlLk6GJQsqaUBKTNV-1">
          <mxGeometry x="790" width="80" height="80" as="geometry" />
        </mxCell>
        <mxCell id="dnalP0NCD64JK1VwUCnu-15" value="Person&lt;hr&gt;String name;&lt;div&gt;int age;&lt;/div&gt;&lt;div&gt;String address;&lt;/div&gt;" style="whiteSpace=wrap;html=1;aspect=fixed;" vertex="1" parent="WIyWlLk6GJQsqaUBKTNV-1">
          <mxGeometry x="790" y="100" width="110" height="110" as="geometry" />
        </mxCell>
        <mxCell id="dnalP0NCD64JK1VwUCnu-16" style="edgeStyle=orthogonalEdgeStyle;rounded=0;orthogonalLoop=1;jettySize=auto;html=1;exitX=1;exitY=0.75;exitDx=0;exitDy=0;entryX=-0.02;entryY=0.151;entryDx=0;entryDy=0;entryPerimeter=0;" edge="1" parent="WIyWlLk6GJQsqaUBKTNV-1" source="dnalP0NCD64JK1VwUCnu-11" target="dnalP0NCD64JK1VwUCnu-15">
          <mxGeometry relative="1" as="geometry" />
        </mxCell>
        <mxCell id="dnalP0NCD64JK1VwUCnu-17" value="BowlingScoreCard&lt;hr&gt;int totalOversCount;&lt;div&gt;int runsGiven;&lt;/div&gt;&lt;div&gt;int wicketsTaken;&lt;/div&gt;&lt;div&gt;int noBallCount;&lt;/div&gt;&lt;div&gt;int wideBAllCount;&lt;/div&gt;&lt;div&gt;int economyRate;&lt;/div&gt;" style="whiteSpace=wrap;html=1;aspect=fixed;" vertex="1" parent="WIyWlLk6GJQsqaUBKTNV-1">
          <mxGeometry x="790" y="240" width="120" height="120" as="geometry" />
        </mxCell>
        <mxCell id="dnalP0NCD64JK1VwUCnu-18" value="BattingScoreCard&lt;hr&gt;int totalRuns;&lt;div&gt;int totalBallsPlayed;&lt;/div&gt;&lt;div&gt;int total4s;&lt;/div&gt;&lt;div&gt;int total6s;&lt;/div&gt;&lt;div&gt;int strikeRate;&lt;/div&gt;&lt;div&gt;int economyRate;&lt;/div&gt;" style="whiteSpace=wrap;html=1;aspect=fixed;" vertex="1" parent="WIyWlLk6GJQsqaUBKTNV-1">
          <mxGeometry x="600" y="240" width="120" height="120" as="geometry" />
        </mxCell>
        <mxCell id="dnalP0NCD64JK1VwUCnu-25" style="edgeStyle=orthogonalEdgeStyle;rounded=0;orthogonalLoop=1;jettySize=auto;html=1;exitX=0.75;exitY=0;exitDx=0;exitDy=0;entryX=0;entryY=1;entryDx=0;entryDy=0;" edge="1" parent="WIyWlLk6GJQsqaUBKTNV-1" source="dnalP0NCD64JK1VwUCnu-21" target="dnalP0NCD64JK1VwUCnu-11">
          <mxGeometry relative="1" as="geometry" />
        </mxCell>
        <mxCell id="dnalP0NCD64JK1VwUCnu-21" value="PlayerBattingController&lt;hr&gt;Queue&amp;lt;Player&amp;gt; yetToBat;&lt;div&gt;Player striker;&lt;/div&gt;&lt;div&gt;Player nonStriker;&lt;/div&gt;" style="whiteSpace=wrap;html=1;aspect=fixed;" vertex="1" parent="WIyWlLk6GJQsqaUBKTNV-1">
          <mxGeometry x="300" y="230" width="130" height="130" as="geometry" />
        </mxCell>
        <mxCell id="dnalP0NCD64JK1VwUCnu-26" style="edgeStyle=orthogonalEdgeStyle;rounded=0;orthogonalLoop=1;jettySize=auto;html=1;exitX=0.75;exitY=0;exitDx=0;exitDy=0;entryX=0.5;entryY=1;entryDx=0;entryDy=0;" edge="1" parent="WIyWlLk6GJQsqaUBKTNV-1" source="dnalP0NCD64JK1VwUCnu-22" target="dnalP0NCD64JK1VwUCnu-11">
          <mxGeometry relative="1" as="geometry">
            <Array as="points">
              <mxPoint x="558" y="180" />
              <mxPoint x="660" y="180" />
            </Array>
          </mxGeometry>
        </mxCell>
        <mxCell id="dnalP0NCD64JK1VwUCnu-22" value="PlayerBowlingController&lt;hr&gt;Dequeue&amp;lt;Player&amp;gt; bowler;&lt;div&gt;Map&amp;lt;Player,int&amp;gt; bowlerVsCount;&lt;/div&gt;&lt;div&gt;Player curBowler;&lt;/div&gt;" style="whiteSpace=wrap;html=1;aspect=fixed;" vertex="1" parent="WIyWlLk6GJQsqaUBKTNV-1">
          <mxGeometry x="450" y="230" width="130" height="130" as="geometry" />
        </mxCell>
        <mxCell id="dnalP0NCD64JK1VwUCnu-30" style="edgeStyle=orthogonalEdgeStyle;rounded=0;orthogonalLoop=1;jettySize=auto;html=1;exitX=0.25;exitY=1;exitDx=0;exitDy=0;entryX=0.25;entryY=0;entryDx=0;entryDy=0;" edge="1" parent="WIyWlLk6GJQsqaUBKTNV-1" source="dnalP0NCD64JK1VwUCnu-27" target="dnalP0NCD64JK1VwUCnu-29">
          <mxGeometry relative="1" as="geometry" />
        </mxCell>
        <mxCell id="dnalP0NCD64JK1VwUCnu-27" value="Innings&lt;hr&gt;Team battingTeam;&lt;div&gt;Team bowlingTeam;&lt;/div&gt;&lt;div&gt;List&amp;lt;Over&amp;gt; overs;&lt;/div&gt;&lt;hr&gt;startInnings();" style="whiteSpace=wrap;html=1;aspect=fixed;" vertex="1" parent="WIyWlLk6GJQsqaUBKTNV-1">
          <mxGeometry x="80" y="240" width="120" height="120" as="geometry" />
        </mxCell>
        <mxCell id="dnalP0NCD64JK1VwUCnu-29" value="Over&lt;hr&gt;int overNumber;&lt;div&gt;List&amp;lt;Ball&amp;gt; balls;&lt;/div&gt;&lt;div&gt;&lt;hr&gt;startOver();&lt;/div&gt;" style="whiteSpace=wrap;html=1;aspect=fixed;" vertex="1" parent="WIyWlLk6GJQsqaUBKTNV-1">
          <mxGeometry x="80" y="400" width="100" height="100" as="geometry" />
        </mxCell>
        <mxCell id="dnalP0NCD64JK1VwUCnu-34" style="edgeStyle=orthogonalEdgeStyle;rounded=0;orthogonalLoop=1;jettySize=auto;html=1;exitX=0.75;exitY=0;exitDx=0;exitDy=0;entryX=1;entryY=0.5;entryDx=0;entryDy=0;" edge="1" parent="WIyWlLk6GJQsqaUBKTNV-1" source="dnalP0NCD64JK1VwUCnu-31" target="dnalP0NCD64JK1VwUCnu-11">
          <mxGeometry relative="1" as="geometry">
            <Array as="points">
              <mxPoint x="353" y="380" />
              <mxPoint x="750" y="380" />
              <mxPoint x="750" y="70" />
            </Array>
          </mxGeometry>
        </mxCell>
        <mxCell id="dnalP0NCD64JK1VwUCnu-36" style="edgeStyle=orthogonalEdgeStyle;rounded=0;orthogonalLoop=1;jettySize=auto;html=1;exitX=1;exitY=0.25;exitDx=0;exitDy=0;entryX=0;entryY=0.25;entryDx=0;entryDy=0;" edge="1" parent="WIyWlLk6GJQsqaUBKTNV-1" source="dnalP0NCD64JK1VwUCnu-31" target="dnalP0NCD64JK1VwUCnu-35">
          <mxGeometry relative="1" as="geometry" />
        </mxCell>
        <mxCell id="dnalP0NCD64JK1VwUCnu-38" style="edgeStyle=orthogonalEdgeStyle;rounded=0;orthogonalLoop=1;jettySize=auto;html=1;exitX=1;exitY=0.75;exitDx=0;exitDy=0;entryX=0;entryY=0.25;entryDx=0;entryDy=0;" edge="1" parent="WIyWlLk6GJQsqaUBKTNV-1" source="dnalP0NCD64JK1VwUCnu-31" target="dnalP0NCD64JK1VwUCnu-37">
          <mxGeometry relative="1" as="geometry" />
        </mxCell>
        <mxCell id="dnalP0NCD64JK1VwUCnu-44" style="edgeStyle=orthogonalEdgeStyle;rounded=0;orthogonalLoop=1;jettySize=auto;html=1;exitX=0;exitY=0.75;exitDx=0;exitDy=0;entryX=0.5;entryY=0;entryDx=0;entryDy=0;" edge="1" parent="WIyWlLk6GJQsqaUBKTNV-1" source="dnalP0NCD64JK1VwUCnu-31" target="dnalP0NCD64JK1VwUCnu-39">
          <mxGeometry relative="1" as="geometry" />
        </mxCell>
        <mxCell id="dnalP0NCD64JK1VwUCnu-31" value="Ball&lt;hr&gt;int ballNumber;&lt;div&gt;BallType ballType;&lt;/div&gt;&lt;div&gt;RunType runType;&lt;/div&gt;&lt;div&gt;Player playedBy;&lt;/div&gt;&lt;div&gt;Player bowledBy;&lt;/div&gt;&lt;div&gt;List&amp;lt;ScoreCardUpdaterObserver&amp;gt; list;&lt;/div&gt;&lt;hr&gt;start ballDelivery();&lt;div&gt;notify()&lt;/div&gt;" style="whiteSpace=wrap;html=1;aspect=fixed;" vertex="1" parent="WIyWlLk6GJQsqaUBKTNV-1">
          <mxGeometry x="241" y="400" width="190" height="190" as="geometry" />
        </mxCell>
        <mxCell id="dnalP0NCD64JK1VwUCnu-32" style="edgeStyle=orthogonalEdgeStyle;rounded=0;orthogonalLoop=1;jettySize=auto;html=1;exitX=1;exitY=0.25;exitDx=0;exitDy=0;entryX=0.004;entryY=0.175;entryDx=0;entryDy=0;entryPerimeter=0;" edge="1" parent="WIyWlLk6GJQsqaUBKTNV-1" source="dnalP0NCD64JK1VwUCnu-29" target="dnalP0NCD64JK1VwUCnu-31">
          <mxGeometry relative="1" as="geometry" />
        </mxCell>
        <mxCell id="dnalP0NCD64JK1VwUCnu-35" value="enum BallType&lt;hr&gt;Normal,&lt;div&gt;Wide,&lt;/div&gt;&lt;div&gt;NoBall;&lt;/div&gt;" style="whiteSpace=wrap;html=1;aspect=fixed;" vertex="1" parent="WIyWlLk6GJQsqaUBKTNV-1">
          <mxGeometry x="475" y="400" width="90" height="90" as="geometry" />
        </mxCell>
        <mxCell id="dnalP0NCD64JK1VwUCnu-37" value="enum RunType&lt;hr&gt;One,&lt;div&gt;Two,&lt;/div&gt;&lt;div&gt;Four,&lt;/div&gt;&lt;div&gt;Six,&lt;/div&gt;&lt;div&gt;Wide;&lt;/div&gt;" style="whiteSpace=wrap;html=1;aspect=fixed;" vertex="1" parent="WIyWlLk6GJQsqaUBKTNV-1">
          <mxGeometry x="475" y="520" width="100" height="100" as="geometry" />
        </mxCell>
        <mxCell id="dnalP0NCD64JK1VwUCnu-39" value="«interface»&lt;br&gt;&lt;div&gt;ScoreCardUpdaterObserver&lt;/div&gt;" style="html=1;whiteSpace=wrap;" vertex="1" parent="WIyWlLk6GJQsqaUBKTNV-1">
          <mxGeometry x="140" y="640" width="160" height="50" as="geometry" />
        </mxCell>
        <mxCell id="dnalP0NCD64JK1VwUCnu-40" value="BowlingScoreCardUpdater&lt;hr&gt;update(Ball ball){&lt;div&gt;}&lt;/div&gt;" style="whiteSpace=wrap;html=1;aspect=fixed;" vertex="1" parent="WIyWlLk6GJQsqaUBKTNV-1">
          <mxGeometry x="120" y="740" width="150" height="150" as="geometry" />
        </mxCell>
        <mxCell id="dnalP0NCD64JK1VwUCnu-41" value="BattingScoreCardUpdater&lt;hr&gt;update(Ball ball){&lt;div&gt;}&lt;/div&gt;" style="whiteSpace=wrap;html=1;aspect=fixed;" vertex="1" parent="WIyWlLk6GJQsqaUBKTNV-1">
          <mxGeometry x="310" y="740" width="150" height="150" as="geometry" />
        </mxCell>
        <mxCell id="dnalP0NCD64JK1VwUCnu-42" value="" style="endArrow=block;dashed=1;endFill=0;endSize=12;html=1;rounded=0;exitX=0.25;exitY=1;exitDx=0;exitDy=0;entryX=0.25;entryY=0;entryDx=0;entryDy=0;" edge="1" parent="WIyWlLk6GJQsqaUBKTNV-1" source="dnalP0NCD64JK1VwUCnu-39" target="dnalP0NCD64JK1VwUCnu-40">
          <mxGeometry width="160" relative="1" as="geometry">
            <mxPoint x="290" y="620" as="sourcePoint" />
            <mxPoint x="450" y="620" as="targetPoint" />
          </mxGeometry>
        </mxCell>
        <mxCell id="dnalP0NCD64JK1VwUCnu-43" value="" style="endArrow=block;dashed=1;endFill=0;endSize=12;html=1;rounded=0;exitX=0.854;exitY=1.004;exitDx=0;exitDy=0;entryX=0.25;entryY=0;entryDx=0;entryDy=0;exitPerimeter=0;" edge="1" parent="WIyWlLk6GJQsqaUBKTNV-1" source="dnalP0NCD64JK1VwUCnu-39" target="dnalP0NCD64JK1VwUCnu-41">
          <mxGeometry width="160" relative="1" as="geometry">
            <mxPoint x="190" y="700" as="sourcePoint" />
            <mxPoint x="168" y="750" as="targetPoint" />
          </mxGeometry>
        </mxCell>
        <mxCell id="dnalP0NCD64JK1VwUCnu-45" value="Observer Design Pattern&lt;div&gt;&lt;br&gt;&lt;/div&gt;" style="text;html=1;align=center;verticalAlign=middle;whiteSpace=wrap;rounded=0;" vertex="1" parent="WIyWlLk6GJQsqaUBKTNV-1">
          <mxGeometry x="160" y="580" width="60" height="30" as="geometry" />
        </mxCell>
      </root>
    </mxGraphModel>
  </diagram>
</mxfile>
